<svg xmlns="http://www.w3.org/2000/svg" viewBox="0 0 640 480" role="img" aria-labelledby="title desc">
  <title id="title">Meeting house at dusk</title>
  <desc id="desc">A warm meeting house beneath a quiet evening sky.</desc>
  <rect width="640" height="480" fill="#d9c8b1"/>
  <rect y="300" width="640" height="180" fill="#34443f"/>
  <circle cx="520" cy="104" r="48" fill="#f5e8c9"/>
  <path d="M0 342 172 178l172 164Z" fill="#8b4938"/>
  <path d="m160 342 160-164 160 164Z" fill="#a85c42"/>
  <path d="m268 236 52-58 56 58v106H268Z" fill="#f4ead7"/>
  <path d="M320 126v108M278 184h84" stroke="#f4ead7" stroke-width="12"/>
  <rect x="112" y="286" width="45" height="62" rx="3" fill="#e9d7b9"/>
  <rect x="483" y="286" width="45" height="62" rx="3" fill="#e9d7b9"/>
  <path d="M0 392c100-24 176-25 264 0s176 24 264 0 80-23 112-16v104H0Z" fill="#263630"/>
  <path d="M54 392v-54M86 392v-75M574 392v-66M604 392v-42" stroke="#17251f" stroke-width="7"/>
</svg>
